# xmcd
#
# Track frame offsets:
#	150
#	4470
#	10795
#	21037
#	25590
#	36620
#	42082
#	52762
#	63150
#	70912
#	91312
#	104512
#	120312
#
# Disc length: 1811 seconds
#
# Revision: 1
# Processed by: cddbd v1.4PL0 Copyright (c) Steve Scherf et al.
# Submitted via: EasyCDDAExtractor 5.0.6
#
DISCID=9a07110d
DTITLE=Tammy Wynette - Stand By Your Man
DYEAR=1900
DGENRE=Country
TTITLE0=Trailer
TTITLE1=Welcome To My World
TTITLE2=Another Chance
TTITLE3=Your Good Girl's Gonna Go Bad
TTITLE4=D.I.V.O.R.C.E.
TTITLE5=Singing My Song
TTITLE6=Womanhood
TTITLE7=Fairy Tales
TTITLE8=When The Geen Grass Grows Over Me
TTITLE9=Medley
TTITLE10=Stand By Your Man
TTITLE11=Till I Can Make It On Your Own
TTITLE12=Crying In The Rain
EXTD=
EXTT0=
EXTT1=
EXTT2=
EXTT3=
EXTT4=
EXTT5=
EXTT6=
EXTT7=
EXTT8=
EXTT9=
EXTT10=
EXTT11=
EXTT12=
PLAYORDER=
